<mxfile host="65bd71144e">
    <diagram id="ZdtYw9VDXguhpGtwa0sp" name="Page-1">
        <mxGraphModel dx="1141" dy="929" grid="0" gridSize="12" guides="1" tooltips="1" connect="1" arrows="1" fold="1" page="1" pageScale="1" pageWidth="1169" pageHeight="827" background="none" math="0" shadow="0">
            <root>
                <mxCell id="0"/>
                <mxCell id="1" parent="0"/>
                <mxCell id="2" value="" style="endArrow=none;html=1;fontStyle=0;strokeWidth=2;" edge="1" parent="1">
                    <mxGeometry width="50" height="50" relative="1" as="geometry">
                        <mxPoint x="99" y="362" as="sourcePoint"/>
                        <mxPoint x="915" y="362" as="targetPoint"/>
                    </mxGeometry>
                </mxCell>
                <mxCell id="3" value="" style="endArrow=none;html=1;fontStyle=0;strokeWidth=2;" edge="1" parent="1">
                    <mxGeometry width="50" height="50" relative="1" as="geometry">
                        <mxPoint x="243" y="266" as="sourcePoint"/>
                        <mxPoint x="243" y="458" as="targetPoint"/>
                    </mxGeometry>
                </mxCell>
                <mxCell id="4" value="&lt;p style=&quot;line-height: 120%; font-size: 24px;&quot;&gt;LIST A&lt;/p&gt;" style="text;html=1;align=center;verticalAlign=middle;resizable=0;points=[];autosize=1;perimeterSpacing=0;fontStyle=1;spacing=2;fontSize=24;rounded=1;" vertex="1" parent="1">
                    <mxGeometry x="129" y="294" width="96" height="84" as="geometry"/>
                </mxCell>
                <mxCell id="6" value="LIST B" style="text;html=1;align=center;verticalAlign=middle;resizable=0;points=[];autosize=1;strokeColor=none;fontSize=24;fontStyle=1;rounded=1;" vertex="1" parent="1">
                    <mxGeometry x="129" y="374" width="96" height="36" as="geometry"/>
                </mxCell>
                <mxCell id="7" value="" style="endArrow=none;html=1;fontSize=24;strokeWidth=2;" edge="1" parent="1">
                    <mxGeometry width="50" height="50" relative="1" as="geometry">
                        <mxPoint x="291" y="410" as="sourcePoint"/>
                        <mxPoint x="291" y="314" as="targetPoint"/>
                        <Array as="points"/>
                    </mxGeometry>
                </mxCell>
                <mxCell id="9" value="" style="endArrow=none;html=1;fontSize=24;strokeWidth=2;" edge="1" parent="1">
                    <mxGeometry width="50" height="50" relative="1" as="geometry">
                        <mxPoint x="339" y="410" as="sourcePoint"/>
                        <mxPoint x="339" y="314" as="targetPoint"/>
                        <Array as="points"/>
                    </mxGeometry>
                </mxCell>
                <mxCell id="10" value="" style="endArrow=none;html=1;fontSize=24;strokeWidth=2;" edge="1" parent="1">
                    <mxGeometry width="50" height="50" relative="1" as="geometry">
                        <mxPoint x="387" y="410" as="sourcePoint"/>
                        <mxPoint x="387" y="314" as="targetPoint"/>
                        <Array as="points"/>
                    </mxGeometry>
                </mxCell>
                <mxCell id="11" value="" style="endArrow=none;html=1;fontSize=24;strokeWidth=2;" edge="1" parent="1">
                    <mxGeometry width="50" height="50" relative="1" as="geometry">
                        <mxPoint x="435" y="410" as="sourcePoint"/>
                        <mxPoint x="435" y="314" as="targetPoint"/>
                        <Array as="points"/>
                    </mxGeometry>
                </mxCell>
                <mxCell id="12" value="" style="endArrow=none;html=1;fontSize=24;strokeWidth=2;" edge="1" parent="1">
                    <mxGeometry width="50" height="50" relative="1" as="geometry">
                        <mxPoint x="483" y="410" as="sourcePoint"/>
                        <mxPoint x="483" y="314" as="targetPoint"/>
                        <Array as="points"/>
                    </mxGeometry>
                </mxCell>
                <mxCell id="13" value="" style="endArrow=none;html=1;fontSize=24;strokeWidth=2;" edge="1" parent="1">
                    <mxGeometry width="50" height="50" relative="1" as="geometry">
                        <mxPoint x="531" y="410" as="sourcePoint"/>
                        <mxPoint x="531" y="314" as="targetPoint"/>
                        <Array as="points"/>
                    </mxGeometry>
                </mxCell>
                <mxCell id="14" value="" style="endArrow=none;html=1;fontSize=24;strokeWidth=2;" edge="1" parent="1">
                    <mxGeometry width="50" height="50" relative="1" as="geometry">
                        <mxPoint x="579" y="410" as="sourcePoint"/>
                        <mxPoint x="579" y="314" as="targetPoint"/>
                        <Array as="points"/>
                    </mxGeometry>
                </mxCell>
                <mxCell id="15" value="" style="endArrow=none;html=1;fontSize=24;strokeWidth=2;" edge="1" parent="1">
                    <mxGeometry width="50" height="50" relative="1" as="geometry">
                        <mxPoint x="627" y="410" as="sourcePoint"/>
                        <mxPoint x="627" y="314" as="targetPoint"/>
                        <Array as="points"/>
                    </mxGeometry>
                </mxCell>
                <mxCell id="16" value="" style="endArrow=none;html=1;fontSize=24;strokeWidth=2;" edge="1" parent="1">
                    <mxGeometry width="50" height="50" relative="1" as="geometry">
                        <mxPoint x="675" y="410" as="sourcePoint"/>
                        <mxPoint x="675" y="314" as="targetPoint"/>
                        <Array as="points"/>
                    </mxGeometry>
                </mxCell>
                <mxCell id="17" value="" style="endArrow=none;html=1;fontSize=24;strokeWidth=2;" edge="1" parent="1">
                    <mxGeometry width="50" height="50" relative="1" as="geometry">
                        <mxPoint x="723" y="410" as="sourcePoint"/>
                        <mxPoint x="723" y="314" as="targetPoint"/>
                        <Array as="points"/>
                    </mxGeometry>
                </mxCell>
                <mxCell id="18" value="" style="endArrow=none;html=1;fontSize=24;strokeWidth=2;" edge="1" parent="1">
                    <mxGeometry width="50" height="50" relative="1" as="geometry">
                        <mxPoint x="771" y="410" as="sourcePoint"/>
                        <mxPoint x="771" y="314" as="targetPoint"/>
                        <Array as="points"/>
                    </mxGeometry>
                </mxCell>
                <mxCell id="19" value="" style="endArrow=none;html=1;fontSize=24;strokeWidth=2;" edge="1" parent="1">
                    <mxGeometry width="50" height="50" relative="1" as="geometry">
                        <mxPoint x="819" y="410" as="sourcePoint"/>
                        <mxPoint x="819" y="314" as="targetPoint"/>
                        <Array as="points"/>
                    </mxGeometry>
                </mxCell>
                <mxCell id="20" value="" style="endArrow=none;html=1;fontSize=24;strokeWidth=2;" edge="1" parent="1">
                    <mxGeometry width="50" height="50" relative="1" as="geometry">
                        <mxPoint x="867" y="410" as="sourcePoint"/>
                        <mxPoint x="867" y="314" as="targetPoint"/>
                        <Array as="points"/>
                    </mxGeometry>
                </mxCell>
                <mxCell id="24" value="&lt;font color=&quot;#ff0000&quot;&gt;2&lt;/font&gt;" style="text;html=1;align=center;verticalAlign=middle;resizable=0;points=[];autosize=1;strokeColor=none;fontSize=24;rounded=1;" vertex="1" parent="1">
                    <mxGeometry x="739" y="371.5" width="23" height="33" as="geometry"/>
                </mxCell>
                <mxCell id="26" value="&lt;font color=&quot;#ff0000&quot;&gt;1&lt;/font&gt;" style="text;html=1;align=center;verticalAlign=middle;resizable=0;points=[];autosize=1;strokeColor=none;fontSize=24;rounded=1;" vertex="1" parent="1">
                    <mxGeometry x="776" y="369.5" width="36" height="36" as="geometry"/>
                </mxCell>
                <mxCell id="27" value="&lt;font color=&quot;#ff0000&quot;&gt;3&lt;/font&gt;" style="text;html=1;align=center;verticalAlign=middle;resizable=0;points=[];autosize=1;strokeColor=none;fontSize=24;rounded=1;" vertex="1" parent="1">
                    <mxGeometry x="690" y="371.5" width="23" height="33" as="geometry"/>
                </mxCell>
                <mxCell id="29" value="&lt;font color=&quot;#ff0000&quot;&gt;4&lt;/font&gt;" style="text;html=1;align=center;verticalAlign=middle;resizable=0;points=[];autosize=1;strokeColor=none;fontSize=24;rounded=1;" vertex="1" parent="1">
                    <mxGeometry x="828" y="371" width="23" height="33" as="geometry"/>
                </mxCell>
                <mxCell id="30" value="&lt;font color=&quot;#ff0000&quot;&gt;5&lt;/font&gt;" style="text;html=1;align=center;verticalAlign=middle;resizable=0;points=[];autosize=1;strokeColor=none;fontSize=24;rounded=1;" vertex="1" parent="1">
                    <mxGeometry x="638.5" y="371.5" width="23" height="33" as="geometry"/>
                </mxCell>
                <mxCell id="31" value="&lt;font color=&quot;#ff0000&quot;&gt;8&lt;/font&gt;" style="text;html=1;align=center;verticalAlign=middle;resizable=0;points=[];autosize=1;strokeColor=none;fontSize=24;rounded=1;" vertex="1" parent="1">
                    <mxGeometry x="732.5" y="318.5" width="23" height="33" as="geometry"/>
                </mxCell>
                <mxCell id="32" value="&lt;font color=&quot;#ff0000&quot;&gt;9&lt;/font&gt;" style="text;html=1;align=center;verticalAlign=middle;resizable=0;points=[];autosize=1;strokeColor=none;fontSize=24;rounded=1;" vertex="1" parent="1">
                    <mxGeometry x="778" y="320" width="23" height="33" as="geometry"/>
                </mxCell>
                <mxCell id="33" value="&lt;font color=&quot;#ff0000&quot;&gt;10&lt;/font&gt;" style="text;html=1;align=center;verticalAlign=middle;resizable=0;points=[];autosize=1;strokeColor=none;fontSize=24;rounded=1;" vertex="1" parent="1">
                    <mxGeometry x="821" y="319.5" width="37" height="33" as="geometry"/>
                </mxCell>
                <mxCell id="40" value="" style="ellipse;whiteSpace=wrap;html=1;aspect=fixed;fontSize=24;labelBorderColor=none;labelBackgroundColor=none;noLabel=1;fontColor=#ffffff;strokeColor=#005700;fillColor=none;strokeWidth=3;rounded=1;" vertex="1" parent="1">
                    <mxGeometry x="179" y="58.5" width="36" height="36" as="geometry"/>
                </mxCell>
                <mxCell id="42" value="&lt;font color=&quot;#006600&quot;&gt;= PIVOT&lt;/font&gt;" style="text;html=1;align=center;verticalAlign=middle;resizable=0;points=[];autosize=1;strokeColor=none;fontSize=24;fontColor=none;rounded=1;" vertex="1" parent="1">
                    <mxGeometry x="227" y="61.5" width="103" height="33" as="geometry"/>
                </mxCell>
                <mxCell id="43" value="" style="rhombus;whiteSpace=wrap;html=1;labelBackgroundColor=none;fontSize=24;fontColor=#000000;strokeWidth=3;strokeColor=#B09500;fillColor=none;rounded=1;" vertex="1" parent="1">
                    <mxGeometry x="490" y="58.5" width="43" height="44" as="geometry"/>
                </mxCell>
                <mxCell id="45" value="" style="rhombus;whiteSpace=wrap;html=1;labelBackgroundColor=none;fontSize=24;fontColor=#000000;strokeWidth=3;strokeColor=#B09500;fillColor=none;rounded=1;" vertex="1" parent="1">
                    <mxGeometry x="557" y="58.5" width="43" height="44" as="geometry"/>
                </mxCell>
                <mxCell id="47" value="&lt;font color=&quot;#999900&quot;&gt;= SORTED&lt;/font&gt;" style="text;html=1;align=center;verticalAlign=middle;resizable=0;points=[];autosize=1;strokeColor=none;fontSize=24;fontColor=none;rounded=1;" vertex="1" parent="1">
                    <mxGeometry x="606.5" y="64" width="130" height="33" as="geometry"/>
                </mxCell>
                <mxCell id="57" value="" style="rhombus;whiteSpace=wrap;html=1;labelBackgroundColor=none;fontSize=24;fontColor=#000000;strokeWidth=3;strokeColor=#B09500;fillColor=none;rounded=1;" vertex="1" parent="1">
                    <mxGeometry x="729" y="365.5" width="43" height="44" as="geometry"/>
                </mxCell>
                <mxCell id="59" value="" style="rhombus;whiteSpace=wrap;html=1;labelBackgroundColor=none;fontSize=24;fontColor=#000000;strokeWidth=3;strokeColor=#B09500;fillColor=none;rounded=1;" vertex="1" parent="1">
                    <mxGeometry x="679.5" y="366" width="43" height="44" as="geometry"/>
                </mxCell>
                <mxCell id="69" value="&lt;font color=&quot;#ff0000&quot;&gt;6&lt;/font&gt;" style="text;html=1;align=center;verticalAlign=middle;resizable=0;points=[];autosize=1;strokeColor=none;fontSize=24;rounded=1;" vertex="1" parent="1">
                    <mxGeometry x="635.5" y="320" width="23" height="33" as="geometry"/>
                </mxCell>
                <mxCell id="70" value="&lt;font color=&quot;#ff0000&quot;&gt;7&lt;/font&gt;" style="text;html=1;align=center;verticalAlign=middle;resizable=0;points=[];autosize=1;strokeColor=none;fontSize=24;rounded=1;" vertex="1" parent="1">
                    <mxGeometry x="683.5" y="318.5" width="23" height="33" as="geometry"/>
                </mxCell>
                <mxCell id="71" value="" style="ellipse;whiteSpace=wrap;html=1;aspect=fixed;fontSize=24;labelBorderColor=none;labelBackgroundColor=none;noLabel=1;fontColor=#ffffff;strokeColor=#005700;fillColor=none;strokeWidth=3;rounded=1;" vertex="1" parent="1">
                    <mxGeometry x="629" y="318" width="36" height="36" as="geometry"/>
                </mxCell>
                <mxCell id="72" value="" style="ellipse;whiteSpace=wrap;html=1;aspect=fixed;fontSize=24;labelBorderColor=none;labelBackgroundColor=none;noLabel=1;fontColor=#ffffff;strokeColor=#005700;fillColor=none;strokeWidth=3;rounded=1;" vertex="1" parent="1">
                    <mxGeometry x="724.5" y="318" width="36" height="36" as="geometry"/>
                </mxCell>
                <mxCell id="73" value="" style="ellipse;whiteSpace=wrap;html=1;aspect=fixed;fontSize=24;labelBorderColor=none;labelBackgroundColor=none;noLabel=1;fontColor=#ffffff;strokeColor=#005700;fillColor=none;strokeWidth=3;rounded=1;" vertex="1" parent="1">
                    <mxGeometry x="632" y="368.5" width="36" height="36" as="geometry"/>
                </mxCell>
            </root>
        </mxGraphModel>
    </diagram>
</mxfile>
